<svg width="300" height="69" viewBox="0 0 300 69" fill="none" xmlns="http://www.w3.org/2000/svg">
<path d="M41.9881 26.5109C34.9016 25.4543 29.7469 22.9677 26.8047 19.2327V45.5804C30.6303 56.4966 49.607 55.5868 54.1139 55.2099V26.9548C51.9453 27.1016 47.1567 27.282 41.9881 26.5121V26.5097V26.5109Z" fill="#FFFBE9"/>
<path d="M24.6196 45.939V16.8192L5.66016 27.8452V56.9927L24.6276 45.9609L24.6196 45.939Z" fill="#FFFBE9"/>
<path d="M43.4153 24.4819V5.88518L27.0586 15.3991C29.5932 21.393 36.8968 23.6796 43.4153 24.4819Z" fill="#FFFBE9"/>
<path d="M86.5404 19.2954H73.7461V11.2531H108.5V19.2954H95.7055V52.3503H86.5416V19.2954H86.5404Z" fill="#FFFBE9"/>
<path d="M124.778 29.1161C120.732 29.1161 116.684 32.2732 116.684 41.1501V52.3507H107.996V21.431H116.684V26.7925C118.113 23.4563 122.159 20.9547 125.848 20.9547C126.503 20.9547 127.039 20.9547 127.633 21.0738V29.4144C126.681 29.2352 125.729 29.1161 124.777 29.1161H124.778Z" fill="#FFFBE9"/>
<path d="M143.461 45.5592C146.437 45.5592 148.639 44.2482 149.292 42.0437H157.981C157.028 48.8353 151.197 52.827 143.163 52.827C132.63 52.827 127.453 44.6054 127.453 36.8614C127.453 29.1173 132.095 20.9547 142.629 20.9547C153.162 20.9547 158.161 29.1161 158.161 36.266C158.161 37.696 158.042 38.8277 158.042 39.1849H136.082C136.796 43.2957 139.475 45.5592 143.461 45.5592ZM136.261 32.9286H148.758C148.52 29.7115 146.378 27.448 142.629 27.448C139.356 27.448 137.094 29.3543 136.261 32.9286Z" fill="#FFFBE9"/>
<path d="M176.453 45.5592C179.429 45.5592 181.631 44.2482 182.285 42.0437H190.973C190.02 48.8353 184.189 52.827 176.155 52.827C165.622 52.827 160.445 44.6054 160.445 36.8614C160.445 29.1173 165.087 20.9547 175.621 20.9547C186.154 20.9547 191.153 29.1161 191.153 36.266C191.153 37.696 191.034 38.8277 191.034 39.1849H169.075C169.788 43.2957 172.467 45.5592 176.453 45.5592ZM169.254 32.9286H181.75C181.512 29.7115 179.37 27.448 175.621 27.448C172.348 27.448 170.086 29.3543 169.254 32.9286Z" fill="#FFFBE9"/>
<path d="M211.387 29.1161C207.341 29.1161 203.294 32.2732 203.294 41.1501V52.3507H194.605V21.431H203.294V26.7925C204.722 23.4563 208.768 20.9547 212.457 20.9547C213.112 20.9547 213.648 20.9547 214.243 21.0738V29.4144C213.29 29.2352 212.339 29.1161 211.386 29.1161H211.387Z" fill="#FFFBE9"/>
<path d="M217.152 9.30455H226.435V17.5584H217.152V9.30455ZM217.39 21.4311H226.078V52.3508H217.39V21.4311Z" fill="#FFFBE9"/>
<path d="M230.691 21.431H239.38V25.6608C241.284 22.861 244.735 20.9547 248.901 20.9547C255.685 20.9547 260.267 25.3637 260.267 32.1553V52.3507H251.519V34.4187C251.519 31.0224 249.436 28.7 246.164 28.7C241.759 28.7 239.38 32.3344 239.38 38.7688V52.3518H230.691V21.431Z" fill="#FFFBE9"/>
<path d="M263.573 52.6492H272.321C272.797 55.4491 275.356 57.1172 278.986 57.1172C283.033 57.1172 285.591 54.7936 285.591 51.1002V47.5258C284.104 49.3731 281.187 50.743 277.617 50.743C268.869 50.743 263.156 44.9641 263.156 35.9091C263.156 26.8541 268.869 20.9561 277.379 20.9561C281.009 20.9561 283.925 22.326 285.591 24.4114V21.4324H294.34V50.2077C294.34 58.6073 288.21 63.97 278.986 63.97C270.596 63.97 264.645 60.0974 263.573 52.6504V52.6492ZM286.068 35.9079C286.068 31.44 283.33 28.402 279.046 28.402C274.762 28.402 272.025 31.381 272.025 35.9079C272.025 40.4349 274.762 43.3549 279.046 43.3549C283.33 43.3549 286.068 40.3759 286.068 35.9079Z" fill="#FFFBE9"/>
</svg>
