<svg width="600" height="137" viewBox="0 0 600 137" fill="none" xmlns="http://www.w3.org/2000/svg">
<path d="M83.9763 51.8942C69.8032 49.7833 59.4938 44.8157 53.6094 37.3539V89.9908C61.2606 111.799 99.214 109.981 108.228 109.228V52.781C103.891 53.0743 94.3134 53.4346 83.9763 51.8965V51.8919V51.8942Z" fill="#FFFBE9"/>
<path d="M49.2391 90.7073V32.5323L11.3203 54.5599V112.79L49.2553 90.7512L49.2391 90.7073Z" fill="#FFFBE9"/>
<path d="M86.8305 47.8408V10.6887L54.1172 29.6955C59.1864 41.6699 73.7937 46.238 86.8305 47.8408Z" fill="#FFFBE9"/>
<path d="M173.085 37.4792H147.496V21.4124H217.004V37.4792H191.415V103.516H173.087V37.4792H173.085Z" fill="#FFFBE9"/>
<path d="M249.551 57.0989C241.459 57.0989 233.365 63.406 233.365 81.1402V103.516H215.988V41.7457H233.365V52.4569C236.221 45.7918 244.314 40.7942 251.692 40.7942C253.002 40.7942 254.073 40.7942 255.263 41.0321V57.6947C253.357 57.3368 251.454 57.0989 249.549 57.0989H249.551Z" fill="#FFFBE9"/>
<path d="M286.922 89.9485C292.874 89.9485 297.278 87.3295 298.585 82.9254H315.961C314.056 96.4934 302.393 104.468 286.326 104.468C265.26 104.468 254.906 88.0432 254.906 72.5722C254.906 57.1012 264.19 40.7942 285.257 40.7942C306.324 40.7942 316.321 57.0989 316.321 71.3828C316.321 74.2396 316.083 76.5006 316.083 77.2142H272.165C273.592 85.4266 278.95 89.9485 286.922 89.9485ZM272.523 64.7154H297.516C297.04 58.2883 292.756 53.7664 285.257 53.7664C278.712 53.7664 274.188 57.5746 272.523 64.7154Z" fill="#FFFBE9"/>
<path d="M352.91 89.9485C358.862 89.9485 363.266 87.3295 364.573 82.9254H381.949C380.044 96.4934 368.381 104.468 352.315 104.468C331.248 104.468 320.895 88.0432 320.895 72.5722C320.895 57.1012 330.179 40.7942 351.245 40.7942C372.312 40.7942 382.31 57.0989 382.31 71.3828C382.31 74.2396 382.072 76.5006 382.072 77.2142H338.153C339.58 85.4266 344.938 89.9485 352.91 89.9485ZM338.511 64.7154H363.504C363.028 58.2883 358.744 53.7664 351.245 53.7664C344.7 53.7664 340.176 57.5746 338.511 64.7154Z" fill="#FFFBE9"/>
<path d="M422.77 57.0989C414.678 57.0989 406.583 63.406 406.583 81.1402V103.516H389.207V41.7457H406.583V52.4569C409.44 45.7918 417.532 40.7942 424.911 40.7942C426.221 40.7942 427.292 40.7942 428.481 41.0321V57.6947C426.576 57.3368 424.673 57.0989 422.768 57.0989H422.77Z" fill="#FFFBE9"/>
<path d="M434.305 17.5198H452.87V34.0092H434.305V17.5198ZM434.78 41.7459H452.157V103.517H434.78V41.7459Z" fill="#FFFBE9"/>
<path d="M461.387 41.7457H478.763V50.1959C482.571 44.6025 489.474 40.7942 497.807 40.7942C511.375 40.7942 520.539 49.6024 520.539 63.1704V103.516H503.042V67.6923C503.042 60.9072 498.876 56.2675 492.331 56.2675C483.523 56.2675 478.763 63.5284 478.763 76.3828V103.519H461.387V41.7457Z" fill="#FFFBE9"/>
<path d="M527.146 104.113H544.643C545.594 109.706 550.712 113.039 557.973 113.039C566.065 113.039 571.183 108.397 571.183 101.018V93.8774C568.208 97.5679 562.375 100.305 555.234 100.305C537.737 100.305 526.312 88.7597 526.312 70.6698C526.312 52.5799 537.737 40.7971 554.758 40.7971C562.019 40.7971 567.85 43.5338 571.183 47.7001V41.7486H588.679V99.2354C588.679 116.016 576.421 126.729 557.973 126.729C541.192 126.729 529.289 118.993 527.146 104.115V104.113ZM572.137 70.6675C572.137 61.7415 566.661 55.6723 558.093 55.6723C549.525 55.6723 544.049 61.6237 544.049 70.6675C544.049 79.7113 549.525 85.545 558.093 85.545C566.661 85.545 572.137 79.5935 572.137 70.6675Z" fill="#FFFBE9"/>
</svg>
